<?xml version="1.0" encoding="UTF-8" standalone="no"?>
<svg
   xmlns:dc="http://purl.org/dc/elements/1.1/"
   xmlns:cc="http://creativecommons.org/ns#"
   xmlns:rdf="http://www.w3.org/1999/02/22-rdf-syntax-ns#"
   xmlns:svg="http://www.w3.org/2000/svg"
   xmlns="http://www.w3.org/2000/svg"
   xmlns:sodipodi="http://sodipodi.sourceforge.net/DTD/sodipodi-0.dtd"
   xmlns:inkscape="http://www.inkscape.org/namespaces/inkscape"
   id="svg"
   version="1.1"
   width="400"
   height="400"
   viewBox="0, 0, 400,400"
   sodipodi:docname="logo_fixed.svg"
   inkscape:version="0.92.5 (2060ec1f9f, 2020-04-08)">
  <metadata
     id="metadata3724">
    <rdf:RDF>
      <cc:Work
         rdf:about="">
        <dc:format>image/svg+xml</dc:format>
        <dc:type
           rdf:resource="http://purl.org/dc/dcmitype/StillImage" />
        <dc:title></dc:title>
      </cc:Work>
    </rdf:RDF>
  </metadata>
  <defs
     id="defs3722" />
  <sodipodi:namedview
     pagecolor="#ffffff"
     bordercolor="#666666"
     borderopacity="1"
     objecttolerance="10"
     gridtolerance="10"
     guidetolerance="10"
     inkscape:pageopacity="0"
     inkscape:pageshadow="2"
     inkscape:window-width="1920"
     inkscape:window-height="1027"
     id="namedview3720"
     showgrid="false"
     inkscape:zoom="2"
     inkscape:cx="149.54266"
     inkscape:cy="168.01579"
     inkscape:window-x="-8"
     inkscape:window-y="-8"
     inkscape:window-maximized="1"
     inkscape:current-layer="svgg">
    <inkscape:grid
       dotted="false"
       type="xygrid"
       id="grid4531" />
  </sodipodi:namedview>
  <g
     id="svgg"
     transform="translate(-2.3255814,3.7209302)">
    <path
       id="path0"
       d="m 107.32558,71.27907 h 55 l 20,45 h 55 l 20,45 -20,45 h 55 l 20,-45 -45,-90 h -65 l -20,-45 h -55"
       inkscape:connector-curvature="0"
       style="opacity:1;fill:#002f6c;fill-rule:evenodd;stroke:none;fill-opacity:1"
       sodipodi:nodetypes="cccccccccccc" />
    <path
       id="path1"
       d="m 127.32558,116.27907 h 55 l -20,45 h 55 l 20,45 20,-45 -20,-45 h -55 l -20,-45 h -55"
       inkscape:connector-curvature="0"
       style="fill:#f0ad4e;fill-rule:evenodd;stroke:none;fill-opacity:1"
       sodipodi:nodetypes="cccccccccc" />
    <path
       id="path2"
       d="m 87.325581,116.27907 19.999999,45 h 55 l 20,45 h 55 l -20,-45 h -55 l 20,-45 h -55 l -20,-45"
       inkscape:connector-curvature="0"
       style="fill:#f0834e;fill-rule:evenodd;stroke:none;fill-opacity:1"
       sodipodi:nodetypes="cccccccccc" />
    <path
       style="fill:#ffffff;fill-rule:evenodd;stroke:none;fill-opacity:1"
       d="M 142.875 232.92188 L 143 294 L 168 294 L 168 285 L 156 285 L 156 266 L 166 266 L 166 257 L 156 257 L 156 242 L 168 242 L 168 233 L 142.875 232.92188 z M 206.0625 232.9375 L 206.0625 244.9375 L 203.0625 244.9375 L 203.0625 253.9375 L 206.0625 253.9375 C 206.0014 264.29162 206 277.64577 206 288 C 206 292 207.99946 294.0005 211.99805 294.00586 C 213.99946 294.00086 226 294 226 294 L 226 285 L 222 285 C 218.83808 284.9853 219.04933 281.99257 219.04492 280.72461 C 218.97192 271.7953 219.0228 262.86677 219.0625 253.9375 L 226.0625 253.9375 L 226.0625 244.9375 L 219.0625 244.9375 L 219.0625 232.9375 L 206.0625 232.9375 z M 193.95312 232.95508 A 6.5 6.5 0 0 0 187.45312 239.45508 A 6.5 6.5 0 0 0 193.95312 245.95508 A 6.5 6.5 0 0 0 200.45312 239.45508 A 6.5 6.5 0 0 0 193.95312 232.95508 z M 171 233 L 171 294 L 184 294 L 184 233 L 171 233 z M 235 245 C 233.20299 245 229 247 229 251 L 229 288 C 229 292 231 294 235 294 L 255 294 C 259 294 261.09403 292.03128 261.03125 288.0625 C 260.89287 279.31446 261 285 261 277 L 248 277 L 248 285 C 246 284.99997 242 285 242 285 L 242 272 L 261 272 C 261.12558 265.47907 261 258 261 251 C 261 247 259 245 255 245 L 235 245 z M 187 247 L 187 294 L 193.55273 294 L 200 294 L 200 247 L 187 247 z M 244 254 L 246 254 C 247 254 248 255 248 256 L 248 263 L 242 263 L 242 256 C 242 256 242 254 244 254 z M 17 303 L 16.875 332.73242 L 17 364 L 30 364 L 30 335 L 35 355 L 42 355 L 47 335 L 47 364 L 59.994141 364.04102 L 60 303 L 47 303 L 39 328 L 30 303 L 17 303 z M 117 303 L 117 315 L 104 315 C 100 315 98 317 98 321 L 98 358 C 98 362 100 364 104 364 L 130 364 L 130 303 L 117 303 z M 198 303 L 198 364 L 223.9375 364 C 228 364 230 362 230 358 L 230 309 C 230 305 228 303 224.0625 303 L 198 303 z M 139.43164 303.08008 A 6.5 6.5 0 0 0 132.93164 309.58008 A 6.5 6.5 0 0 0 139.43164 316.08008 A 6.5 6.5 0 0 0 145.93164 309.58008 A 6.5 6.5 0 0 0 139.43164 303.08008 z M 309.43164 303.08008 A 6.5 6.5 0 0 0 302.93164 309.58008 A 6.5 6.5 0 0 0 309.43164 316.08008 A 6.5 6.5 0 0 0 315.93164 309.58008 A 6.5 6.5 0 0 0 309.43164 303.08008 z M 211 312 L 215 312 C 215 312 217 311.9993 217 314.01953 L 217 353 C 217 355 215 355 215 355 L 211 355 L 211 312 z M 69 315 C 67.20299 315 63 317 63 321 L 63 358 C 63 362 65 364 69 364 L 89 364 C 93.000002 364 95.09403 362.03128 95.03125 358.0625 C 94.89287 349.31446 95 355 95 347 L 82 347 L 82 355 C 80 354.99997 76 355 76 355 L 76 342 L 95 342 C 95.12558 335.47907 95 328 95 321 C 95 317 93.000002 315 89 315 L 69 315 z M 155.09375 315 C 151 315 149 317 149 321 L 149 330 L 163 330 L 163 328 C 163 328 162.99971 326 164.97656 326 L 169 326 L 169 336 L 155 336 C 151 336 149 338 149 342 L 149 358 C 149 362 151.00065 364 155.01172 364 L 182 364 L 182 315 L 155.09375 315 z M 239 315 C 237.20299 315 233 317 233 321 L 233 358 C 233 362 235 364 239 364 L 259 364 C 263 364 265.09403 362.03128 265.03125 358.0625 C 264.89287 349.31446 265 355 265 347 L 252 347 L 252 355 C 250 354.99997 246 355 246 355 L 246 342 L 265 342 C 265.12558 335.47907 265 328 265 321 C 265 317 263 315 259 315 L 239 315 z M 274 315 C 270 315 267.99965 316.99988 268.07617 320.875 C 267.99967 323.99988 268 329.91406 268 329.91406 L 287 347 L 287 353 C 287 353 286.99958 355 285.00781 355 L 282.99805 355 C 281.00066 355 281 353 281 353 L 281 347 L 268 347 L 268 358.06055 C 268 362.00082 270 364 274 364 L 293.95703 364 C 297.99948 364 300 362 300 358 L 300 347 L 281 330 L 281 325 C 281 325 281 323 283.03125 323 L 285 323 C 287 323 287 325 287 325 L 287 330 L 300 330 L 300 321 C 300 317 298 315 294.03125 315 L 274 315 z M 325 315 C 321 315 319 317 319 320.9375 L 319 358 C 319 362 321 364 325 364 L 338 364 L 338 371 C 338 371 338 373 336 373 L 333.9375 373 C 332 373 332 371 332 371 L 332 369 L 319 369 L 319 376 C 319 380 321 382 325.09375 382 L 345.00195 382 C 349.00013 382 351 380 351 376 L 351 315 L 325 315 z M 354 315 L 354 364 L 367 364 L 367 324 L 370.9375 324 C 370.9375 324 373 324 373 326 L 373 364 L 386 364 L 386 321 C 386 317 384 315 380.09375 315 L 354 315 z M 133 317 L 133 364 L 139.55273 364 L 146 364 L 146 317 L 133 317 z M 303 317 L 303 364 L 309.55273 364 L 316 364 L 316 317 L 303 317 z M 78 324 L 80 324 C 82 324.00001 82 326 82 326 L 82 333 L 76 333 L 76 326 C 76 326 76 324 78 324 z M 248 324 L 250 324 C 251 324 252 325 252 326 L 252 333 L 246 333 L 246 326 C 246 326 246 324 248 324 z M 334 324 L 338 324 L 338 355 L 334 355 C 334 355 332 355 332 353.0625 L 332 326 C 332 324 334 324 334 324 z M 113 326 L 117 326 L 117 355 L 113 355 C 113 355 111 355 111 353 L 111 328 C 111 328 111 326 113 326 z M 165 347 L 169 347 L 169 353 L 165 353 C 165 353 163 353 163 351.04688 L 163 349 C 163 347 165 347 165 347 z "
       transform="translate(2.3255814,-3.7209302)"
       id="path3" />
  </g>
</svg>
